<svg width="52" height="59" viewBox="0 0 52 59" fill="none" xmlns="http://www.w3.org/2000/svg">
<path d="M8.55263 28.9854C8.55263 52.6029 20.5263 55.4208 20.5263 55.4208C20.5263 55.4208 0 52.6029 0 28.9854C0 5.36798 20.5263 4.10504 20.5263 4.10504C20.5263 4.10504 8.55263 5.36798 8.55263 28.9854Z" fill="white"/>
<path d="M44.1315 12.3156C50.2779 12.3396 51.3157 29.7629 51.3157 29.7629C51.3157 29.7629 52.2471 4.10513 44.1315 4.10504C37.9737 4.10497 33.7814 17.4471 33.8684 28.7366C33.9476 39.0097 35.9211 55.4208 44.1315 55.4208C49.8701 55.4208 51.3157 31.8156 51.3157 31.8156C51.3157 31.8156 49.1153 47.2103 44.1315 47.2103C39.1476 47.2103 37.9851 12.2916 44.1315 12.3156Z" fill="white"/>
<path d="M28.7368 8.21027C34.8948 7.18396 36.9473 14.3684 36.9473 14.3684C36.9473 14.3684 38.4589 0.000402196 28.7368 0C20.5263 -0.000339651 17.3431 14.6145 17.4474 27.7103C17.5423 39.627 20.5262 58.5 28.7368 58.5C35.6113 58.5 35.9209 42.0789 35.9209 42.0789C35.9209 42.0789 34.2156 50.4479 28.7368 50.2895C23.258 50.131 21.5839 9.40241 28.7368 8.21027Z" fill="white"/>
</svg>
