<svg width="1447" height="187" viewBox="0 0 1447 187" fill="none" xmlns="http://www.w3.org/2000/svg">
<path fill-rule="evenodd" clip-rule="evenodd" d="M863.787 34.4059C947.67 50.2245 962.912 51.0819 1095.06 64.3256C1160.4 70.8742 1221.36 12.2785 1317.32 13.0345C1470.61 14.2422 1445.47 13.0345 1445.47 13.0345V82.0335V146.148V185.226C1445.47 185.226 1351.8 181.17 1254.74 185.226C1150.6 189.579 1040.96 175.225 927 176C828.813 176.667 756.732 187.373 661.051 185.226C562.744 183.021 565.52 179.913 466.5 178C299.286 174.77 3.05532e-05 185.226 3.05532e-05 185.226L0 113.175V87.4677L1.52766e-05 49.671C1.52766e-05 49.671 102.976 10.246 209.023 39.2906C332.048 72.985 432.932 21.611 492.855 11.2026C637.207 -13.8712 719.691 7.23198 863.787 34.4059Z" fill="white"/>
</svg>
