<svg width="213" height="44" viewBox="0 0 213 44" fill="none" xmlns="http://www.w3.org/2000/svg">
<path d="M24 9.5C24.8284 9.5 25.5 10.1716 25.5 11V18.25H10.25L10.25 9.5L24 9.5Z" fill="white" stroke="black"/>
<path d="M0.5 13.5C0.5 11.2909 2.29086 9.5 4.5 9.5H9.25V24.75H0.5V13.5Z" fill="white" stroke="white"/>
<path d="M25.5 30.5C25.5 32.7091 23.7091 34.5 21.5 34.5H16.75V19.25H25.5L25.5 30.5Z" fill="white" stroke="white"/>
<path d="M15.75 25.75L15.75 34.5H2C1.17157 34.5 0.5 33.8284 0.5 33L0.5 25.75L15.75 25.75Z" fill="white" stroke="black"/>
<path d="M33.6076 35V9.224H42.9316C44.9716 9.224 46.7236 9.896 48.1876 11.24C49.6516 12.56 50.3836 14.228 50.3836 16.244C50.3836 18.788 49.2196 20.576 46.8916 21.608V21.752C48.2116 22.184 49.2676 22.94 50.0596 24.02C50.8516 25.076 51.2476 26.288 51.2476 27.656C51.2476 29.768 50.4796 31.52 48.9436 32.912C47.4556 34.304 45.6196 35 43.4356 35H33.6076ZM36.9196 12.392V20.276H42.9316C44.1076 20.276 45.0916 19.88 45.8836 19.088C46.6756 18.272 47.0716 17.348 47.0716 16.316C47.0716 15.308 46.6876 14.396 45.9196 13.58C45.1516 12.788 44.2036 12.392 43.0756 12.392H36.9196ZM36.9196 23.372V31.832H43.5796C44.7796 31.832 45.7996 31.412 46.6396 30.572C47.4556 29.732 47.8636 28.736 47.8636 27.584C47.8636 26.456 47.4436 25.472 46.6036 24.632C45.7636 23.792 44.7076 23.372 43.4356 23.372H36.9196ZM62.3266 35.576C59.7346 35.576 57.5986 34.688 55.9186 32.912C54.2386 31.136 53.3986 28.892 53.3986 26.18C53.3986 23.492 54.2146 21.26 55.8466 19.484C57.4786 17.684 59.5666 16.784 62.1106 16.784C64.7266 16.784 66.8026 17.636 68.3386 19.34C69.8986 21.02 70.6786 23.384 70.6786 26.432L70.6426 26.792H56.7826C56.8306 28.52 57.4066 29.912 58.5106 30.968C59.6146 32.024 60.9346 32.552 62.4706 32.552C64.5826 32.552 66.2386 31.496 67.4386 29.384L70.3906 30.824C69.5986 32.312 68.4946 33.476 67.0786 34.316C65.6866 35.156 64.1026 35.576 62.3266 35.576ZM57.0346 24.056H67.1506C67.0546 22.832 66.5506 21.824 65.6386 21.032C64.7506 20.216 63.5506 19.808 62.0386 19.808C60.7906 19.808 59.7106 20.192 58.7986 20.96C57.9106 21.728 57.3226 22.76 57.0346 24.056ZM81.9238 35H78.6118L71.4838 17.36H75.0838L80.2678 31.04H80.3398L85.5958 17.36H89.1238L81.9238 35ZM107.054 17.36L96.0015 42.776H92.5815L96.6855 33.884L89.4135 17.36H93.0135L98.2695 30.032H98.3415L103.454 17.36H107.054ZM122.364 30.104C122.364 31.64 121.692 32.936 120.348 33.992C119.004 35.048 117.312 35.576 115.272 35.576C113.496 35.576 111.936 35.12 110.592 34.208C109.248 33.272 108.288 32.048 107.712 30.536L110.664 29.276C111.096 30.332 111.72 31.16 112.536 31.76C113.376 32.336 114.288 32.624 115.272 32.624C116.328 32.624 117.204 32.396 117.9 31.94C118.62 31.484 118.98 30.944 118.98 30.32C118.98 29.192 118.116 28.364 116.388 27.836L113.364 27.08C109.932 26.216 108.216 24.56 108.216 22.112C108.216 20.504 108.864 19.22 110.16 18.26C111.48 17.276 113.16 16.784 115.2 16.784C116.76 16.784 118.164 17.156 119.412 17.9C120.684 18.644 121.572 19.64 122.076 20.888L119.124 22.112C118.788 21.368 118.236 20.792 117.468 20.384C116.724 19.952 115.884 19.736 114.948 19.736C114.084 19.736 113.304 19.952 112.608 20.384C111.936 20.816 111.6 21.344 111.6 21.968C111.6 22.976 112.548 23.696 114.444 24.128L117.108 24.812C120.612 25.676 122.364 27.44 122.364 30.104ZM142.126 42.776H138.814V35L138.958 32.552H138.814C138.238 33.464 137.41 34.196 136.33 34.748C135.274 35.3 134.098 35.576 132.802 35.576C130.498 35.576 128.518 34.664 126.862 32.84C125.23 30.992 124.414 28.772 124.414 26.18C124.414 23.588 125.23 21.368 126.862 19.52C128.518 17.696 130.498 16.784 132.802 16.784C134.098 16.784 135.274 17.06 136.33 17.612C137.41 18.164 138.238 18.896 138.814 19.808H138.958V17.36H142.126V42.776ZM133.342 32.552C134.974 32.552 136.306 31.964 137.338 30.788C138.418 29.612 138.958 28.076 138.958 26.18C138.958 24.332 138.418 22.808 137.338 21.608C136.282 20.408 134.95 19.808 133.342 19.808C131.758 19.808 130.426 20.408 129.346 21.608C128.266 22.808 127.726 24.332 127.726 26.18C127.726 28.052 128.266 29.576 129.346 30.752C130.426 31.952 131.758 32.552 133.342 32.552ZM161.504 35H158.336V32.552H158.192C157.688 33.416 156.908 34.136 155.852 34.712C154.82 35.288 153.74 35.576 152.612 35.576C150.452 35.576 148.784 34.964 147.608 33.74C146.456 32.492 145.88 30.728 145.88 28.448V17.36H149.192V28.232C149.264 31.112 150.716 32.552 153.548 32.552C154.868 32.552 155.972 32.024 156.86 30.968C157.748 29.888 158.192 28.604 158.192 27.116V17.36H161.504V35ZM167.772 29.6C167.772 30.464 168.132 31.184 168.852 31.76C169.596 32.336 170.46 32.624 171.444 32.624C172.836 32.624 174.072 32.108 175.152 31.076C176.256 30.044 176.808 28.832 176.808 27.44C175.776 26.624 174.336 26.216 172.488 26.216C171.144 26.216 170.016 26.54 169.104 27.188C168.216 27.836 167.772 28.64 167.772 29.6ZM172.056 16.784C174.504 16.784 176.436 17.444 177.852 18.764C179.268 20.06 179.976 21.848 179.976 24.128V35H176.808V32.552H176.664C175.296 34.568 173.472 35.576 171.192 35.576C169.248 35.576 167.616 35 166.296 33.848C165 32.696 164.352 31.256 164.352 29.528C164.352 27.704 165.036 26.252 166.404 25.172C167.796 24.092 169.644 23.552 171.948 23.552C173.916 23.552 175.536 23.912 176.808 24.632V23.876C176.808 22.724 176.352 21.752 175.44 20.96C174.528 20.144 173.46 19.736 172.236 19.736C170.388 19.736 168.924 20.516 167.844 22.076L164.928 20.24C166.536 17.936 168.912 16.784 172.056 16.784ZM187.023 35H183.711V17.36H186.879V20.24H187.023C187.359 19.304 188.043 18.512 189.075 17.864C190.131 17.192 191.163 16.856 192.171 16.856C193.131 16.856 193.947 17 194.619 17.288L193.611 20.492C193.203 20.324 192.555 20.24 191.667 20.24C190.419 20.24 189.327 20.744 188.391 21.752C187.479 22.76 187.023 23.936 187.023 25.28V35ZM203.62 35.576C201.028 35.576 198.892 34.688 197.212 32.912C195.532 31.136 194.692 28.892 194.692 26.18C194.692 23.492 195.508 21.26 197.14 19.484C198.772 17.684 200.86 16.784 203.404 16.784C206.02 16.784 208.096 17.636 209.632 19.34C211.192 21.02 211.972 23.384 211.972 26.432L211.936 26.792H198.076C198.124 28.52 198.7 29.912 199.804 30.968C200.908 32.024 202.228 32.552 203.764 32.552C205.876 32.552 207.532 31.496 208.732 29.384L211.684 30.824C210.892 32.312 209.788 33.476 208.372 34.316C206.98 35.156 205.396 35.576 203.62 35.576ZM198.328 24.056H208.444C208.348 22.832 207.844 21.824 206.932 21.032C206.044 20.216 204.844 19.808 203.332 19.808C202.084 19.808 201.004 20.192 200.092 20.96C199.204 21.728 198.616 22.76 198.328 24.056Z" fill="white"/>
</svg>
