<svg width="52" height="59" viewBox="0 0 52 59" fill="none" xmlns="http://www.w3.org/2000/svg">
<path d="M8.64789 29.2335C8.64789 53.0528 20.7549 55.8949 20.7549 55.8949C20.7549 55.8949 0 53.0528 0 29.2335C0 5.41424 20.7549 4.1405 20.7549 4.1405C20.7549 4.1405 8.64789 5.41424 8.64789 29.2335Z" fill="white"/>
<path d="M44.6229 12.4212C50.8378 12.4454 51.8871 30.0177 51.8871 30.0177C51.8871 30.0177 52.8289 4.14059 44.6229 4.1405C38.3966 4.14043 34.1576 17.5966 34.2456 28.9826C34.3257 39.3434 36.3211 55.8949 44.6229 55.8949C50.4254 55.8949 51.8871 32.0879 51.8871 32.0879C51.8871 32.0879 49.6622 47.6142 44.6229 47.6142C39.5836 47.6142 38.4081 12.397 44.6229 12.4212Z" fill="white"/>
<path d="M29.057 8.28045C35.2835 7.24536 37.3589 14.4912 37.3589 14.4912C37.3589 14.4912 38.8873 0.000405633 29.057 0C20.755 -0.000342554 17.5364 14.7394 17.6418 27.9471C17.7378 39.9657 20.7549 59 29.057 59C36.0081 59 36.3211 42.4386 36.3211 42.4386C36.3211 42.4386 34.5968 50.8791 29.057 50.7193C23.5171 50.5595 21.8244 9.48277 29.057 8.28045Z" fill="white"/>
</svg>
